<?xml version="1.0" standalone="no"?>
<!DOCTYPE svg PUBLIC "-//W3C//DTD SVG 20010904//EN"
 "http://www.w3.org/TR/2001/REC-SVG-20010904/DTD/svg10.dtd">
<svg version="1.0" xmlns="http://www.w3.org/2000/svg"
 width="150pt" height="40pt" viewBox="0 0 500 40"
 preserveAspectRatio="xMidYMid meet">

<g transform="translate(0.0000000,55.000000) scale(0.100000,-0.100000)"
 stroke="none" fill="url(#paint0_linear_425_166)">
<path d="M30 270 l0 -250 35 0 35 0 0 175 c0 96 3 175 8 175 4 0 41 -63 82
-140 73 -138 98 -165 129 -146 6 4 45 73 88 154 l78 147 3 -182 2 -183 35 0
35 0 0 250 0 250 -40 0 c-47 0 -42 7 -152 -202 l-73 -137 -15 32 c-9 18 -49
94 -89 170 l-74 137 -43 0 -44 0 0 -250z"/>
<path d="M784 496 c-179 -83 -179 -369 0 -452 105 -49 249 -21 311 60 72 95
72 237 0 332 -62 81 -206 109 -311 60z m201 -75 c47 -27 70 -76 70 -151 0
-113 -58 -175 -163 -174 -85 2 -138 52 -149 141 -15 132 62 223 177 207 19 -3
48 -13 65 -23z"/>
<path d="M1262 270 l100 -250 42 0 41 0 92 233 c51 127 95 240 99 250 5 14 0
17 -34 17 -22 0 -45 -6 -51 -14 -6 -7 -42 -95 -80 -196 -55 -145 -70 -177 -76
-159 -16 53 -129 345 -138 357 -5 6 -29 12 -52 12 l-43 0 100 -250z"/>
<path d="M1710 270 l0 -250 45 0 45 0 0 250 0 250 -45 0 -45 0 0 -250z"/>
<path d="M1920 270 l0 -250 155 0 155 0 0 35 0 35 -110 0 -110 0 0 75 0 75 85
0 85 0 0 35 0 35 -85 0 -85 0 0 70 0 70 110 0 110 0 0 35 0 35 -155 0 -155 0
0 -250z"/>
<path d="M2450 271 l0 -251 40 0 40 0 2 179 3 179 76 -141 c42 -78 84 -146 93
-152 28 -18 48 7 126 151 l75 139 3 -178 2 -177 40 0 40 0 0 251 0 250 -46 -3
-46 -3 -87 -162 c-76 -144 -101 -182 -101 -155 0 5 -37 78 -82 163 l-83 154
-47 3 -48 3 0 -250z"/>
<path d="M3150 278 c-52 -132 -97 -245 -99 -250 -1 -5 16 -8 40 -6 46 3 52 9
83 91 l15 37 101 0 101 0 15 -38 c31 -81 37 -87 83 -90 33 -3 42 0 38 10 -2 7
-47 120 -98 251 l-92 237 -47 0 -46 0 -94 -242z m179 49 c18 -50 36 -98 38
-104 4 -10 -15 -13 -77 -13 -45 0 -80 3 -78 8 2 4 19 51 38 105 19 53 37 97
40 97 3 0 20 -42 39 -93z"/>
<path d="M3500 480 l0 -40 75 0 75 0 0 -210 0 -210 45 0 45 0 0 210 0 210 75
0 75 0 0 40 0 40 -195 0 -195 0 0 -40z"/>
<path d="M4035 496 c-97 -45 -141 -128 -133 -251 7 -100 40 -157 118 -198 49
-26 63 -28 131 -25 62 2 83 8 117 31 23 15 42 31 42 35 0 4 -9 18 -19 31 l-18
24 -39 -24 c-50 -31 -131 -32 -171 -3 -56 42 -68 69 -68 154 0 64 4 84 21 107
49 65 142 86 217 49 38 -19 39 -19 59 2 28 27 18 49 -34 72 -62 28 -158 27
-223 -4z"/>
<path d="M4390 270 l0 -250 45 0 45 0 0 110 0 110 120 0 120 0 0 -110 0 -110
45 0 45 0 0 250 0 250 -45 0 -44 0 -3 -107 -3 -108 -115 0 -115 0 -3 108 -3
107 -44 0 -45 0 0 -250z"/>

<defs>
<linearGradient id="paint0_linear_425_166" x1="4.66832" y1="24.1098" x2="34.1078" y2="13.9886" gradientUnits="userSpaceOnUse">
<stop stop-color="#F89E00"/>
<stop offset="1" stop-color="#DA2F68"/>
</linearGradient>
<linearGradient id="paint1_linear_425_166" x1="35.4961" y1="26.2198" x2="124.453" y2="23.9271" gradientUnits="userSpaceOnUse">
<stop stop-color="#F89E00"/>
<stop offset="1" stop-color="#DA2F68"/>
</linearGradient>
</defs>

</g>
</svg>
